# xmcd CD database file
#
# Track frame offsets:
#        150
#        41075
#        84269
#        108915
#        160952
#        203432
#        247629
#        273870
#        295177
#
# Disc length: 4466 seconds
#
# Revision: 0
# Processed by: cddbd v1.5.2PL0 Copyright (c) Steve Scherf et al.
# Submitted via: CUERipper 2.1.5
#
DISCID=68117009
DTITLE=Miles Davis - Kind of Blue (Masterworks Series)
DYEAR=1959
DGENRE=Blues
TTITLE0=So What
TTITLE1=Freddie Freeloader
TTITLE2=Blue in Green
TTITLE3=All Blues
TTITLE4=Flamenco Sketches
TTITLE5=On Green Dolphin Street (Bonus)
TTITLE6=Fran-Dance (Bonus)
TTITLE7=Stella by Starlight (Bonus)
TTITLE8=So What (Bonus)
EXTD=
EXTT0=
EXTT1=
EXTT2=
EXTT3=
EXTT4=
EXTT5=
EXTT6=
EXTT7=
EXTT8=
PLAYORDER=
